<?xml version="1.0" encoding="UTF-8" standalone="no"?>
<!DOCTYPE svg PUBLIC "-//W3C//DTD SVG 1.1//EN"
 "http://www.w3.org/Graphics/SVG/1.1/DTD/svg11.dtd">
<!-- Generated by graphviz version 2.34.0 (20140110.0949)
 -->
<!-- Title: cluster_dev_network Pages: 1 -->
<svg width="782pt" height="750pt"
 viewBox="0.00 0.00 782.00 750.00" xmlns="http://www.w3.org/2000/svg" xmlns:xlink="http://www.w3.org/1999/xlink">
<g id="graph0" class="graph" transform="scale(1 1) rotate(0) translate(4 746)">
<title>cluster_dev_network</title>
<polygon fill="white" stroke="white" points="-4,4 -4,-746 778,-746 778,4 -4,4"/>
<text text-anchor="middle" x="387" y="-726.8" font-family="Times,serif" font-size="14.00">Deployment zone (dmsat1)</text>
<g id="clust1" class="cluster"><title>cluster_svcs</title>
<polygon fill="white" stroke="black" points="0.189572,-378.224 0.189572,-719.224 580.19,-719.224 580.19,-378.224 0.189572,-378.224"/>
<text text-anchor="middle" x="290.19" y="-386.024" font-family="Times,serif" font-size="14.00">Services (svcs) zone</text>
</g>
<g id="clust2" class="cluster"><title>cluster_ntp1</title>
<polygon fill="white" stroke="black" points="459.656,-543.811 459.656,-680.811 572.656,-680.811 572.656,-543.811 459.656,-543.811"/>
<text text-anchor="middle" x="516.156" y="-551.611" font-family="Times,serif" font-size="14.00">ntp1 instance</text>
</g>
<g id="clust3" class="cluster"><title>cluster_dns1</title>
<polygon fill="white" stroke="black" points="298.755,-409.621 298.755,-530.621 471.755,-530.621 471.755,-409.621 298.755,-409.621"/>
<text text-anchor="middle" x="385.255" y="-417.421" font-family="Times,serif" font-size="14.00">dns1 instance</text>
</g>
<g id="clust4" class="cluster"><title>cluster_ldap1</title>
<polygon fill="white" stroke="black" points="8.58129,-485.394 8.58129,-660.394 212.581,-660.394 212.581,-485.394 8.58129,-485.394"/>
<text text-anchor="middle" x="110.581" y="-493.194" font-family="Times,serif" font-size="14.00">ldap1 instance</text>
</g>
<g id="clust5" class="cluster"><title>cluster_lts1</title>
<polygon fill="white" stroke="black" points="310.792,-603.903 310.792,-710.903 442.792,-710.903 442.792,-603.903 310.792,-603.903"/>
<text text-anchor="middle" x="376.792" y="-611.703" font-family="Times,serif" font-size="14.00">lts1 instance</text>
</g>
<g id="clust6" class="cluster"><title>cluster_rmt</title>
<polygon fill="white" stroke="black" points="589.321,-358.39 589.321,-499.39 774.321,-499.39 774.321,-358.39 589.321,-358.39"/>
<text text-anchor="middle" x="681.821" y="-366.19" font-family="Times,serif" font-size="14.00">Remote (rmt) zone</text>
</g>
<g id="clust7" class="cluster"><title>cluster_dmz</title>
<polygon fill="white" stroke="black" points="546.165,0.256396 546.165,-180.744 724.165,-180.744 724.165,0.256396 546.165,0.256396"/>
<text text-anchor="middle" x="635.165" y="-7.5436" font-family="Times,serif" font-size="14.00">Demilitarized (dmz) zone</text>
</g>
<g id="clust8" class="cluster"><title>cluster_ldap2</title>
<polygon fill="white" stroke="black" points="622.38,-31.1246 622.38,-106.125 716.38,-106.125 716.38,-31.1246 622.38,-31.1246"/>
<text text-anchor="middle" x="669.38" y="-38.9246" font-family="Times,serif" font-size="14.00">ldap2 instance</text>
</g>
<g id="clust9" class="cluster"><title>cluster_core</title>
<polygon fill="white" stroke="black" points="316.607,-172.5 316.607,-369.5 534.607,-369.5 534.607,-172.5 316.607,-172.5"/>
<text text-anchor="middle" x="425.607" y="-180.3" font-family="Times,serif" font-size="14.00">Central network (core) zone</text>
</g>
<!-- svcs&#45;&#45;ant1 -->
<g id="edge1" class="edge"><title>svcs&#45;&#45;ant1</title>
<path fill="none" stroke="black" d="M313.087,-593.086C302.302,-613.694 287.672,-641.652 278.215,-659.722"/>
</g>
<!-- svcs&#45;&#45;ntp1 -->
<g id="edge2" class="edge"><title>svcs&#45;&#45;ntp1</title>
<path fill="none" stroke="black" d="M377.691,-593.084C407.11,-608.595 443.017,-627.527 467.149,-640.25"/>
</g>
<!-- svcs&#45;&#45;ntp2 -->
<g id="edge3" class="edge"><title>svcs&#45;&#45;ntp2</title>
<path fill="none" stroke="black" d="M379.696,-577.192C421.271,-585.724 477.603,-597.285 510.594,-604.056"/>
</g>
<!-- svcs&#45;&#45;dns1 -->
<g id="edge4" class="edge"><title>svcs&#45;&#45;dns1</title>
<path fill="none" stroke="black" d="M374.008,-539.783C386.033,-532.968 398.564,-525.867 409.205,-519.837"/>
</g>
<!-- svcs&#45;&#45;dns2 -->
<g id="edge5" class="edge"><title>svcs&#45;&#45;dns2</title>
<path fill="none" stroke="black" d="M345.994,-539.669C359.907,-520.039 378.446,-493.881 390.704,-476.586"/>
</g>
<!-- svcs&#45;&#45;dns3 -->
<g id="edge6" class="edge"><title>svcs&#45;&#45;dns3</title>
<path fill="none" stroke="black" d="M329.022,-539.451C330.077,-524.989 331.348,-507.55 332.284,-494.715"/>
</g>
<!-- svcs&#45;&#45;ds1 -->
<g id="edge7" class="edge"><title>svcs&#45;&#45;ds1</title>
<path fill="none" stroke="black" d="M274.335,-559.058C226.558,-552.414 158.064,-542.89 120.55,-537.673"/>
</g>
<!-- svcs&#45;&#45;ds2 -->
<g id="edge8" class="edge"><title>svcs&#45;&#45;ds2</title>
<path fill="none" stroke="black" d="M274.445,-569.287C214.13,-572.609 117.594,-577.926 70.8792,-580.499"/>
</g>
<!-- svcs&#45;&#45;lvs1 -->
<g id="edge9" class="edge"><title>svcs&#45;&#45;lvs1</title>
<path fill="none" stroke="black" d="M274.211,-572.803C250.61,-575.668 223.799,-578.922 204.347,-581.283"/>
</g>
<!-- svcs&#45;&#45;lvs2 -->
<g id="edge10" class="edge"><title>svcs&#45;&#45;lvs2</title>
<path fill="none" stroke="black" d="M274.549,-578.217C215.64,-591.487 122.366,-612.499 76.6681,-622.793"/>
</g>
<!-- svcs&#45;&#45;lts1 -->
<g id="edge11" class="edge"><title>svcs&#45;&#45;lts1</title>
<path fill="none" stroke="black" d="M331.259,-593.049C334.816,-615.623 339.82,-647.373 342.928,-667.092"/>
</g>
<!-- svcs&#45;&#45;lts2 -->
<g id="edge12" class="edge"><title>svcs&#45;&#45;lts2</title>
<path fill="none" stroke="black" d="M345.686,-593.006C360.95,-614.816 382.143,-645.098 395.527,-664.221"/>
</g>
<!-- svcs&#45;&#45;d21sw1 -->
<g id="edge13" class="edge"><title>svcs&#45;&#45;d21sw1</title>
<path fill="none" stroke="black" d="M310.08,-539.844C297.607,-520.342 280.986,-494.355 269.996,-477.172"/>
</g>
<!-- rmt&#45;&#45;proxy1 -->
<g id="edge14" class="edge"><title>rmt&#45;&#45;proxy1</title>
<path fill="none" stroke="black" d="M656.304,-442.127C657.72,-446.66 659.161,-451.272 660.486,-455.516"/>
</g>
<!-- rmt&#45;&#45;tgt1 -->
<g id="edge15" class="edge"><title>rmt&#45;&#45;tgt1</title>
<path fill="none" stroke="black" d="M698.49,-428.761C703.068,-429.967 707.577,-431.154 711.828,-432.273"/>
</g>
<!-- dmz&#45;&#45;ds3 -->
<g id="edge16" class="edge"><title>dmz&#45;&#45;ds3</title>
<path fill="none" stroke="black" d="M659.056,-119.897C660.847,-112.667 662.745,-105.004 664.393,-98.3494"/>
</g>
<!-- dmz&#45;&#45;dex1 -->
<g id="edge17" class="edge"><title>dmz&#45;&#45;dex1</title>
<path fill="none" stroke="black" d="M624.984,-120.028C616.469,-111.798 607.29,-102.925 599.522,-95.4169"/>
</g>
<!-- core&#45;&#45;svcs -->
<g id="edge21" class="edge"><title>core&#45;&#45;svcs</title>
<path fill="none" stroke="black" d="M394.35,-314.702C380.124,-367.911 348.381,-486.634 334.172,-539.777"/>
</g>
<!-- core&#45;&#45;rmt -->
<g id="edge22" class="edge"><title>core&#45;&#45;rmt</title>
<path fill="none" stroke="black" d="M452.859,-314.572C495.186,-336.458 554.898,-367.334 597.091,-389.151"/>
</g>
<!-- core&#45;&#45;dmz -->
<g id="edge23" class="edge"><title>core&#45;&#45;dmz</title>
<path fill="none" stroke="black" d="M448.691,-261.407C493.417,-236.201 560.234,-198.545 605.03,-173.299"/>
</g>
<!-- core&#45;&#45;dev1 -->
<g id="edge18" class="edge"><title>core&#45;&#45;dev1</title>
<path fill="none" stroke="black" d="M454.168,-285.564C460.324,-285.278 466.401,-284.996 472.006,-284.736"/>
</g>
<!-- core&#45;&#45;rpm1 -->
<g id="edge19" class="edge"><title>core&#45;&#45;rpm1</title>
<path fill="none" stroke="black" d="M381.583,-261.318C376.189,-254.084 370.472,-246.417 365.507,-239.759"/>
</g>
<!-- core&#45;&#45;yum1 -->
<g id="edge20" class="edge"><title>core&#45;&#45;yum1</title>
<path fill="none" stroke="black" d="M416.177,-261.26C418.791,-256.502 421.457,-251.647 423.902,-247.196"/>
</g>
<!-- svcs -->
<g id="node1" class="node"><title>svcs</title>
<polygon fill="lightgray" stroke="black" points="379.557,-592.889 274.557,-592.889 274.557,-539.889 379.557,-539.889 379.557,-592.889"/>
<text text-anchor="middle" x="327.057" y="-577.689" font-family="Times,serif" font-size="14.00">svcs.dmsat1.org</text>
<text text-anchor="middle" x="327.057" y="-562.689" font-family="Times,serif" font-size="14.00">svcs</text>
<text text-anchor="middle" x="327.057" y="-547.689" font-family="Times,serif" font-size="14.00">192.168.5.0/24</text>
</g>
<!-- ant1 -->
<g id="node2" class="node"><title>ant1</title>
<path fill="lightblue" stroke="black" d="M283.731,-695.847C283.731,-695.847 253.731,-695.847 253.731,-695.847 247.731,-695.847 241.731,-689.847 241.731,-683.847 241.731,-683.847 241.731,-671.847 241.731,-671.847 241.731,-665.847 247.731,-659.847 253.731,-659.847 253.731,-659.847 283.731,-659.847 283.731,-659.847 289.731,-659.847 295.731,-665.847 295.731,-671.847 295.731,-671.847 295.731,-683.847 295.731,-683.847 295.731,-689.847 289.731,-695.847 283.731,-695.847"/>
<text text-anchor="middle" x="268.731" y="-674.147" font-family="Times,serif" font-size="14.00">ant1</text>
</g>
<!-- ntp1 -->
<g id="node3" class="node"><title>ntp1</title>
<path fill="lightblue" stroke="black" d="M509.303,-672.567C509.303,-672.567 479.303,-672.567 479.303,-672.567 473.303,-672.567 467.303,-666.567 467.303,-660.567 467.303,-660.567 467.303,-648.567 467.303,-648.567 467.303,-642.567 473.303,-636.567 479.303,-636.567 479.303,-636.567 509.303,-636.567 509.303,-636.567 515.303,-636.567 521.303,-642.567 521.303,-648.567 521.303,-648.567 521.303,-660.567 521.303,-660.567 521.303,-666.567 515.303,-672.567 509.303,-672.567"/>
<text text-anchor="middle" x="494.303" y="-650.867" font-family="Times,serif" font-size="14.00">ntp1</text>
</g>
<!-- ntp2 -->
<g id="node4" class="node"><title>ntp2</title>
<path fill="lightblue" stroke="black" d="M552.811,-627.641C552.811,-627.641 522.811,-627.641 522.811,-627.641 516.811,-627.641 510.811,-621.641 510.811,-615.641 510.811,-615.641 510.811,-603.641 510.811,-603.641 510.811,-597.641 516.811,-591.641 522.811,-591.641 522.811,-591.641 552.811,-591.641 552.811,-591.641 558.811,-591.641 564.811,-597.641 564.811,-603.641 564.811,-603.641 564.811,-615.641 564.811,-615.641 564.811,-621.641 558.811,-627.641 552.811,-627.641"/>
<text text-anchor="middle" x="537.811" y="-605.941" font-family="Times,serif" font-size="14.00">ntp2</text>
</g>
<!-- dns1 -->
<g id="node5" class="node"><title>dns1</title>
<path fill="lightblue" stroke="black" d="M451.272,-522.499C451.272,-522.499 421.272,-522.499 421.272,-522.499 415.272,-522.499 409.272,-516.499 409.272,-510.499 409.272,-510.499 409.272,-498.499 409.272,-498.499 409.272,-492.499 415.272,-486.499 421.272,-486.499 421.272,-486.499 451.272,-486.499 451.272,-486.499 457.272,-486.499 463.272,-492.499 463.272,-498.499 463.272,-498.499 463.272,-510.499 463.272,-510.499 463.272,-516.499 457.272,-522.499 451.272,-522.499"/>
<text text-anchor="middle" x="436.272" y="-500.799" font-family="Times,serif" font-size="14.00">dns1</text>
</g>
<!-- dns2 -->
<g id="node6" class="node"><title>dns2</title>
<path fill="lightblue" stroke="black" d="M418.666,-476.297C418.666,-476.297 388.666,-476.297 388.666,-476.297 382.666,-476.297 376.666,-470.297 376.666,-464.297 376.666,-464.297 376.666,-452.297 376.666,-452.297 376.666,-446.297 382.666,-440.297 388.666,-440.297 388.666,-440.297 418.666,-440.297 418.666,-440.297 424.666,-440.297 430.666,-446.297 430.666,-452.297 430.666,-452.297 430.666,-464.297 430.666,-464.297 430.666,-470.297 424.666,-476.297 418.666,-476.297"/>
<text text-anchor="middle" x="403.666" y="-454.597" font-family="Times,serif" font-size="14.00">dns2</text>
</g>
<!-- dns3 -->
<g id="node7" class="node"><title>dns3</title>
<path fill="lightblue" stroke="black" d="M348.605,-494.607C348.605,-494.607 318.605,-494.607 318.605,-494.607 312.605,-494.607 306.605,-488.607 306.605,-482.607 306.605,-482.607 306.605,-470.607 306.605,-470.607 306.605,-464.607 312.605,-458.607 318.605,-458.607 318.605,-458.607 348.605,-458.607 348.605,-458.607 354.605,-458.607 360.605,-464.607 360.605,-470.607 360.605,-470.607 360.605,-482.607 360.605,-482.607 360.605,-488.607 354.605,-494.607 348.605,-494.607"/>
<text text-anchor="middle" x="333.605" y="-472.907" font-family="Times,serif" font-size="14.00">dns3</text>
</g>
<!-- ds1 -->
<g id="node8" class="node"><title>ds1</title>
<path fill="lightblue" stroke="black" d="M108.428,-551.902C108.428,-551.902 78.4285,-551.902 78.4285,-551.902 72.4285,-551.902 66.4285,-545.902 66.4285,-539.902 66.4285,-539.902 66.4285,-527.902 66.4285,-527.902 66.4285,-521.902 72.4285,-515.902 78.4285,-515.902 78.4285,-515.902 108.428,-515.902 108.428,-515.902 114.428,-515.902 120.428,-521.902 120.428,-527.902 120.428,-527.902 120.428,-539.902 120.428,-539.902 120.428,-545.902 114.428,-551.902 108.428,-551.902"/>
<text text-anchor="middle" x="93.4285" y="-530.202" font-family="Times,serif" font-size="14.00">ds1</text>
</g>
<!-- ds2 -->
<g id="node9" class="node"><title>ds2</title>
<path fill="lightblue" stroke="black" d="M58.8117,-599.99C58.8117,-599.99 28.8117,-599.99 28.8117,-599.99 22.8117,-599.99 16.8117,-593.99 16.8117,-587.99 16.8117,-587.99 16.8117,-575.99 16.8117,-575.99 16.8117,-569.99 22.8117,-563.99 28.8117,-563.99 28.8117,-563.99 58.8117,-563.99 58.8117,-563.99 64.8117,-563.99 70.8117,-569.99 70.8117,-575.99 70.8117,-575.99 70.8117,-587.99 70.8117,-587.99 70.8117,-593.99 64.8117,-599.99 58.8117,-599.99"/>
<text text-anchor="middle" x="43.8117" y="-578.29" font-family="Times,serif" font-size="14.00">ds2</text>
</g>
<!-- lvs1 -->
<g id="node10" class="node"><title>lvs1</title>
<path fill="lightblue" stroke="black" d="M192.164,-602.583C192.164,-602.583 162.164,-602.583 162.164,-602.583 156.164,-602.583 150.164,-596.583 150.164,-590.583 150.164,-590.583 150.164,-578.583 150.164,-578.583 150.164,-572.583 156.164,-566.583 162.164,-566.583 162.164,-566.583 192.164,-566.583 192.164,-566.583 198.164,-566.583 204.164,-572.583 204.164,-578.583 204.164,-578.583 204.164,-590.583 204.164,-590.583 204.164,-596.583 198.164,-602.583 192.164,-602.583"/>
<text text-anchor="middle" x="177.164" y="-580.883" font-family="Times,serif" font-size="14.00">lvs1</text>
</g>
<!-- lvs2 -->
<g id="node11" class="node"><title>lvs2</title>
<path fill="lightblue" stroke="black" d="M64.6277,-646.884C64.6277,-646.884 34.6277,-646.884 34.6277,-646.884 28.6277,-646.884 22.6277,-640.884 22.6277,-634.884 22.6277,-634.884 22.6277,-622.884 22.6277,-622.884 22.6277,-616.884 28.6277,-610.884 34.6277,-610.884 34.6277,-610.884 64.6277,-610.884 64.6277,-610.884 70.6277,-610.884 76.6277,-616.884 76.6277,-622.884 76.6277,-622.884 76.6277,-634.884 76.6277,-634.884 76.6277,-640.884 70.6277,-646.884 64.6277,-646.884"/>
<text text-anchor="middle" x="49.6277" y="-625.184" font-family="Times,serif" font-size="14.00">lvs2</text>
</g>
<!-- lts1 -->
<g id="node12" class="node"><title>lts1</title>
<path fill="lightblue" stroke="black" d="M360.779,-703.184C360.779,-703.184 330.779,-703.184 330.779,-703.184 324.779,-703.184 318.779,-697.184 318.779,-691.184 318.779,-691.184 318.779,-679.184 318.779,-679.184 318.779,-673.184 324.779,-667.184 330.779,-667.184 330.779,-667.184 360.779,-667.184 360.779,-667.184 366.779,-667.184 372.779,-673.184 372.779,-679.184 372.779,-679.184 372.779,-691.184 372.779,-691.184 372.779,-697.184 366.779,-703.184 360.779,-703.184"/>
<text text-anchor="middle" x="345.779" y="-681.484" font-family="Times,serif" font-size="14.00">lts1</text>
</g>
<!-- lts2 -->
<g id="node13" class="node"><title>lts2</title>
<path fill="lightblue" stroke="black" d="M423.257,-700.41C423.257,-700.41 393.257,-700.41 393.257,-700.41 387.257,-700.41 381.257,-694.41 381.257,-688.41 381.257,-688.41 381.257,-676.41 381.257,-676.41 381.257,-670.41 387.257,-664.41 393.257,-664.41 393.257,-664.41 423.257,-664.41 423.257,-664.41 429.257,-664.41 435.257,-670.41 435.257,-676.41 435.257,-676.41 435.257,-688.41 435.257,-688.41 435.257,-694.41 429.257,-700.41 423.257,-700.41"/>
<text text-anchor="middle" x="408.257" y="-678.71" font-family="Times,serif" font-size="14.00">lts2</text>
</g>
<!-- d21sw1 -->
<g id="node14" class="node"><title>d21sw1</title>
<path fill="lightblue" stroke="black" d="M275.876,-477.003C275.876,-477.003 240.876,-477.003 240.876,-477.003 234.876,-477.003 228.876,-471.003 228.876,-465.003 228.876,-465.003 228.876,-453.003 228.876,-453.003 228.876,-447.003 234.876,-441.003 240.876,-441.003 240.876,-441.003 275.876,-441.003 275.876,-441.003 281.876,-441.003 287.876,-447.003 287.876,-453.003 287.876,-453.003 287.876,-465.003 287.876,-465.003 287.876,-471.003 281.876,-477.003 275.876,-477.003"/>
<text text-anchor="middle" x="258.376" y="-455.303" font-family="Times,serif" font-size="14.00">d21sw1</text>
</g>
<!-- rmt -->
<g id="node15" class="node"><title>rmt</title>
<polygon fill="lightgray" stroke="black" points="698.474,-441.961 597.474,-441.961 597.474,-388.961 698.474,-388.961 698.474,-441.961"/>
<text text-anchor="middle" x="647.974" y="-426.761" font-family="Times,serif" font-size="14.00">rmt.dmsat1.org</text>
<text text-anchor="middle" x="647.974" y="-411.761" font-family="Times,serif" font-size="14.00">rmt</text>
<text text-anchor="middle" x="647.974" y="-396.761" font-family="Times,serif" font-size="14.00">192.168.7.0/24</text>
</g>
<!-- proxy1 -->
<g id="node16" class="node"><title>proxy1</title>
<path fill="lightblue" stroke="black" d="M681.621,-491.553C681.621,-491.553 650.621,-491.553 650.621,-491.553 644.621,-491.553 638.621,-485.553 638.621,-479.553 638.621,-479.553 638.621,-467.553 638.621,-467.553 638.621,-461.553 644.621,-455.553 650.621,-455.553 650.621,-455.553 681.621,-455.553 681.621,-455.553 687.621,-455.553 693.621,-461.553 693.621,-467.553 693.621,-467.553 693.621,-479.553 693.621,-479.553 693.621,-485.553 687.621,-491.553 681.621,-491.553"/>
<text text-anchor="middle" x="666.121" y="-469.853" font-family="Times,serif" font-size="14.00">proxy1</text>
</g>
<!-- tgt1 -->
<g id="node17" class="node"><title>tgt1</title>
<path fill="lightblue" stroke="black" d="M753.901,-457.402C753.901,-457.402 723.901,-457.402 723.901,-457.402 717.901,-457.402 711.901,-451.402 711.901,-445.402 711.901,-445.402 711.901,-433.402 711.901,-433.402 711.901,-427.402 717.901,-421.402 723.901,-421.402 723.901,-421.402 753.901,-421.402 753.901,-421.402 759.901,-421.402 765.901,-427.402 765.901,-433.402 765.901,-433.402 765.901,-445.402 765.901,-445.402 765.901,-451.402 759.901,-457.402 753.901,-457.402"/>
<text text-anchor="middle" x="738.901" y="-435.702" font-family="Times,serif" font-size="14.00">tgt1</text>
</g>
<!-- dmz -->
<g id="node18" class="node"><title>dmz</title>
<polygon fill="lightgray" stroke="black" points="705.449,-173.076 599.449,-173.076 599.449,-120.076 705.449,-120.076 705.449,-173.076"/>
<text text-anchor="middle" x="652.449" y="-157.876" font-family="Times,serif" font-size="14.00">dmz.dmsat1.org</text>
<text text-anchor="middle" x="652.449" y="-142.876" font-family="Times,serif" font-size="14.00">dmz</text>
<text text-anchor="middle" x="652.449" y="-127.876" font-family="Times,serif" font-size="14.00">192.168.6.0/24</text>
</g>
<!-- ds3 -->
<g id="node19" class="node"><title>ds3</title>
<path fill="lightblue" stroke="black" d="M683.927,-98.0424C683.927,-98.0424 653.927,-98.0424 653.927,-98.0424 647.927,-98.0424 641.927,-92.0424 641.927,-86.0424 641.927,-86.0424 641.927,-74.0424 641.927,-74.0424 641.927,-68.0424 647.927,-62.0424 653.927,-62.0424 653.927,-62.0424 683.927,-62.0424 683.927,-62.0424 689.927,-62.0424 695.927,-68.0424 695.927,-74.0424 695.927,-74.0424 695.927,-86.0424 695.927,-86.0424 695.927,-92.0424 689.927,-98.0424 683.927,-98.0424"/>
<text text-anchor="middle" x="668.927" y="-76.3424" font-family="Times,serif" font-size="14.00">ds3</text>
</g>
<!-- dex1 -->
<g id="node20" class="node"><title>dex1</title>
<path fill="lightblue" stroke="black" d="M595.882,-95.3998C595.882,-95.3998 565.882,-95.3998 565.882,-95.3998 559.882,-95.3998 553.882,-89.3998 553.882,-83.3998 553.882,-83.3998 553.882,-71.3998 553.882,-71.3998 553.882,-65.3998 559.882,-59.3998 565.882,-59.3998 565.882,-59.3998 595.882,-59.3998 595.882,-59.3998 601.882,-59.3998 607.882,-65.3998 607.882,-71.3998 607.882,-71.3998 607.882,-83.3998 607.882,-83.3998 607.882,-89.3998 601.882,-95.3998 595.882,-95.3998"/>
<text text-anchor="middle" x="580.882" y="-73.6998" font-family="Times,serif" font-size="14.00">dex1</text>
</g>
<!-- core -->
<g id="node21" class="node"><title>core</title>
<polygon fill="lightgray" stroke="black" points="453.987,-314.51 348.987,-314.51 348.987,-261.51 453.987,-261.51 453.987,-314.51"/>
<text text-anchor="middle" x="401.487" y="-299.31" font-family="Times,serif" font-size="14.00">core.dmsat1.org</text>
<text text-anchor="middle" x="401.487" y="-284.31" font-family="Times,serif" font-size="14.00">core</text>
<text text-anchor="middle" x="401.487" y="-269.31" font-family="Times,serif" font-size="14.00">192.168.4.0/24</text>
</g>
<!-- dev1 -->
<g id="node22" class="node"><title>dev1</title>
<path fill="lightblue" stroke="black" d="M514.398,-301.464C514.398,-301.464 484.398,-301.464 484.398,-301.464 478.398,-301.464 472.398,-295.464 472.398,-289.464 472.398,-289.464 472.398,-277.464 472.398,-277.464 472.398,-271.464 478.398,-265.464 484.398,-265.464 484.398,-265.464 514.398,-265.464 514.398,-265.464 520.398,-265.464 526.398,-271.464 526.398,-277.464 526.398,-277.464 526.398,-289.464 526.398,-289.464 526.398,-295.464 520.398,-301.464 514.398,-301.464"/>
<text text-anchor="middle" x="499.398" y="-279.764" font-family="Times,serif" font-size="14.00">dev1</text>
</g>
<!-- rpm1 -->
<g id="node23" class="node"><title>rpm1</title>
<path fill="lightblue" stroke="black" d="M366.849,-239.443C366.849,-239.443 336.849,-239.443 336.849,-239.443 330.849,-239.443 324.849,-233.443 324.849,-227.443 324.849,-227.443 324.849,-215.443 324.849,-215.443 324.849,-209.443 330.849,-203.443 336.849,-203.443 336.849,-203.443 366.849,-203.443 366.849,-203.443 372.849,-203.443 378.849,-209.443 378.849,-215.443 378.849,-215.443 378.849,-227.443 378.849,-227.443 378.849,-233.443 372.849,-239.443 366.849,-239.443"/>
<text text-anchor="middle" x="351.849" y="-217.743" font-family="Times,serif" font-size="14.00">rpm1</text>
</g>
<!-- yum1 -->
<g id="node24" class="node"><title>yum1</title>
<path fill="lightblue" stroke="black" d="M448.903,-246.985C448.903,-246.985 418.903,-246.985 418.903,-246.985 412.903,-246.985 406.903,-240.985 406.903,-234.985 406.903,-234.985 406.903,-222.985 406.903,-222.985 406.903,-216.985 412.903,-210.985 418.903,-210.985 418.903,-210.985 448.903,-210.985 448.903,-210.985 454.903,-210.985 460.903,-216.985 460.903,-222.985 460.903,-222.985 460.903,-234.985 460.903,-234.985 460.903,-240.985 454.903,-246.985 448.903,-246.985"/>
<text text-anchor="middle" x="433.903" y="-225.285" font-family="Times,serif" font-size="14.00">yum1</text>
</g>
</g>
</svg>
