<?xml version="1.0" encoding="UTF-8" standalone="no"?>
<!DOCTYPE svg PUBLIC "-//W3C//DTD SVG 1.1//EN"
 "http://www.w3.org/Graphics/SVG/1.1/DTD/svg11.dtd">
<!-- Generated by graphviz version 2.34.0 (20140110.0949)
 -->
<!-- Title: cluster_dev_network Pages: 1 -->
<svg width="783pt" height="739pt"
 viewBox="0.00 0.00 783.00 739.00" xmlns="http://www.w3.org/2000/svg" xmlns:xlink="http://www.w3.org/1999/xlink">
<g id="graph0" class="graph" transform="scale(1 1) rotate(0) translate(4 735)">
<title>cluster_dev_network</title>
<polygon fill="white" stroke="white" points="-4,4 -4,-735 779,-735 779,4 -4,4"/>
<text text-anchor="middle" x="387.5" y="-715.8" font-family="Times,serif" font-size="14.00">Deployment zone (dmsat1)</text>
<g id="clust1" class="cluster"><title>cluster_svcs</title>
<polygon fill="white" stroke="black" points="0.326657,-366.647 0.326657,-707.647 580.327,-707.647 580.327,-366.647 0.326657,-366.647"/>
<text text-anchor="middle" x="290.327" y="-374.447" font-family="Times,serif" font-size="14.00">Services (svcs) zone</text>
</g>
<g id="clust2" class="cluster"><title>cluster_ntp1</title>
<polygon fill="white" stroke="black" points="459.792,-532.239 459.792,-669.239 572.792,-669.239 572.792,-532.239 459.792,-532.239"/>
<text text-anchor="middle" x="516.292" y="-540.039" font-family="Times,serif" font-size="14.00">ntp1 instance</text>
</g>
<g id="clust3" class="cluster"><title>cluster_dns1</title>
<polygon fill="white" stroke="black" points="298.895,-398.046 298.895,-519.046 471.895,-519.046 471.895,-398.046 298.895,-398.046"/>
<text text-anchor="middle" x="385.395" y="-405.846" font-family="Times,serif" font-size="14.00">dns1 instance</text>
</g>
<g id="clust4" class="cluster"><title>cluster_ldap1</title>
<polygon fill="white" stroke="black" points="8.71862,-473.811 8.71862,-648.811 212.719,-648.811 212.719,-473.811 8.71862,-473.811"/>
<text text-anchor="middle" x="110.719" y="-481.611" font-family="Times,serif" font-size="14.00">ldap1 instance</text>
</g>
<g id="clust5" class="cluster"><title>cluster_lts1</title>
<polygon fill="white" stroke="black" points="310.926,-592.328 310.926,-699.328 442.926,-699.328 442.926,-592.328 310.926,-592.328"/>
<text text-anchor="middle" x="376.926" y="-600.128" font-family="Times,serif" font-size="14.00">lts1 instance</text>
</g>
<g id="clust6" class="cluster"><title>cluster_rmt</title>
<polygon fill="white" stroke="black" points="589.824,-349.034 589.824,-491.034 774.824,-491.034 774.824,-349.034 589.824,-349.034"/>
<text text-anchor="middle" x="682.324" y="-356.834" font-family="Times,serif" font-size="14.00">Remote (rmt) zone</text>
</g>
<g id="clust7" class="cluster"><title>cluster_dmz</title>
<polygon fill="white" stroke="black" points="555.934,-0.12565 555.934,-139.126 747.934,-139.126 747.934,-0.12565 555.934,-0.12565"/>
<text text-anchor="middle" x="651.934" y="-7.92565" font-family="Times,serif" font-size="14.00">Demilitarized (dmz) zone</text>
</g>
<g id="clust8" class="cluster"><title>cluster_core</title>
<polygon fill="white" stroke="black" points="320.431,-163.894 320.431,-357.894 537.431,-357.894 537.431,-163.894 320.431,-163.894"/>
<text text-anchor="middle" x="428.931" y="-171.694" font-family="Times,serif" font-size="14.00">Central network (core) zone</text>
</g>
<!-- svcs&#45;&#45;ant1 -->
<g id="edge1" class="edge"><title>svcs&#45;&#45;ant1</title>
<path fill="none" stroke="black" d="M313.223,-581.509C302.438,-602.118 287.806,-630.075 278.35,-648.145"/>
</g>
<!-- svcs&#45;&#45;ntp1 -->
<g id="edge2" class="edge"><title>svcs&#45;&#45;ntp1</title>
<path fill="none" stroke="black" d="M377.827,-581.51C407.247,-597.021 443.154,-615.954 467.285,-628.677"/>
</g>
<!-- svcs&#45;&#45;ntp2 -->
<g id="edge3" class="edge"><title>svcs&#45;&#45;ntp2</title>
<path fill="none" stroke="black" d="M379.833,-565.617C421.408,-574.15 477.739,-585.712 510.73,-592.483"/>
</g>
<!-- svcs&#45;&#45;dns1 -->
<g id="edge4" class="edge"><title>svcs&#45;&#45;dns1</title>
<path fill="none" stroke="black" d="M374.146,-528.207C386.172,-521.392 398.703,-514.291 409.344,-508.262"/>
</g>
<!-- svcs&#45;&#45;dns2 -->
<g id="edge5" class="edge"><title>svcs&#45;&#45;dns2</title>
<path fill="none" stroke="black" d="M346.132,-528.094C360.046,-508.463 378.585,-482.306 390.844,-465.01"/>
</g>
<!-- svcs&#45;&#45;dns3 -->
<g id="edge6" class="edge"><title>svcs&#45;&#45;dns3</title>
<path fill="none" stroke="black" d="M329.16,-527.875C330.215,-513.413 331.487,-495.974 332.424,-483.14"/>
</g>
<!-- svcs&#45;&#45;ds1 -->
<g id="edge7" class="edge"><title>svcs&#45;&#45;ds1</title>
<path fill="none" stroke="black" d="M274.473,-547.48C226.697,-540.834 158.203,-531.308 120.69,-526.09"/>
</g>
<!-- svcs&#45;&#45;ds2 -->
<g id="edge8" class="edge"><title>svcs&#45;&#45;ds2</title>
<path fill="none" stroke="black" d="M274.582,-557.709C214.268,-561.028 117.731,-566.342 71.0168,-568.913"/>
</g>
<!-- svcs&#45;&#45;lvs1 -->
<g id="edge9" class="edge"><title>svcs&#45;&#45;lvs1</title>
<path fill="none" stroke="black" d="M274.348,-561.226C250.747,-564.09 223.936,-567.343 204.484,-569.704"/>
</g>
<!-- svcs&#45;&#45;lvs2 -->
<g id="edge10" class="edge"><title>svcs&#45;&#45;lvs2</title>
<path fill="none" stroke="black" d="M274.686,-566.639C215.777,-579.907 122.502,-600.915 76.8039,-611.208"/>
</g>
<!-- svcs&#45;&#45;lts1 -->
<g id="edge11" class="edge"><title>svcs&#45;&#45;lts1</title>
<path fill="none" stroke="black" d="M331.395,-581.473C334.952,-604.047 339.955,-635.797 343.062,-655.516"/>
</g>
<!-- svcs&#45;&#45;lts2 -->
<g id="edge12" class="edge"><title>svcs&#45;&#45;lts2</title>
<path fill="none" stroke="black" d="M345.823,-581.431C361.086,-603.241 382.278,-633.523 395.661,-652.646"/>
</g>
<!-- svcs&#45;&#45;d21sw1 -->
<g id="edge13" class="edge"><title>svcs&#45;&#45;d21sw1</title>
<path fill="none" stroke="black" d="M310.218,-528.267C297.745,-508.765 281.125,-482.777 270.136,-465.594"/>
</g>
<!-- rmt&#45;&#45;proxy1 -->
<g id="edge14" class="edge"><title>rmt&#45;&#45;proxy1</title>
<path fill="none" stroke="black" d="M698.958,-420.361C703.376,-421.529 707.73,-422.679 711.85,-423.767"/>
</g>
<!-- rmt&#45;&#45;tgt1 -->
<g id="edge15" class="edge"><title>rmt&#45;&#45;tgt1</title>
<path fill="none" stroke="black" d="M656.755,-433.751C658.176,-438.298 659.621,-442.924 660.951,-447.18"/>
</g>
<!-- dmz&#45;&#45;ds3 -->
<g id="edge16" class="edge"><title>dmz&#45;&#45;ds3</title>
<path fill="none" stroke="black" d="M617.264,-77.4438C617.267,-73.8897 617.27,-70.3143 617.273,-66.9503"/>
</g>
<!-- dmz&#45;&#45;dex1 -->
<g id="edge17" class="edge"><title>dmz&#45;&#45;dex1</title>
<path fill="none" stroke="black" d="M665.865,-77.6902C672.849,-73.873 679.818,-70.0645 686.181,-66.5871"/>
</g>
<!-- core&#45;&#45;svcs -->
<g id="edge21" class="edge"><title>core&#45;&#45;svcs</title>
<path fill="none" stroke="black" d="M394.49,-303.216C380.263,-356.406 348.519,-475.087 334.31,-528.211"/>
</g>
<!-- core&#45;&#45;rmt -->
<g id="edge22" class="edge"><title>core&#45;&#45;rmt</title>
<path fill="none" stroke="black" d="M451.862,-303.093C494.562,-325.669 555.554,-357.917 598.234,-380.482"/>
</g>
<!-- core&#45;&#45;dmz -->
<g id="edge23" class="edge"><title>core&#45;&#45;dmz</title>
<path fill="none" stroke="black" d="M434.844,-249.993C475.362,-217.621 543.451,-163.22 583.986,-130.833"/>
</g>
<!-- core&#45;&#45;dev1 -->
<g id="edge18" class="edge"><title>core&#45;&#45;dev1</title>
<path fill="none" stroke="black" d="M454.255,-274.475C461.477,-274.193 468.634,-273.913 475.128,-273.659"/>
</g>
<!-- core&#45;&#45;rpm1 -->
<g id="edge19" class="edge"><title>core&#45;&#45;rpm1</title>
<path fill="none" stroke="black" d="M383.137,-249.802C378.69,-243.372 374.042,-236.652 369.94,-230.722"/>
</g>
<!-- core&#45;&#45;yum1 -->
<g id="edge20" class="edge"><title>core&#45;&#45;yum1</title>
<path fill="none" stroke="black" d="M417.779,-249.834C420.783,-244.868 423.858,-239.785 426.666,-235.142"/>
</g>
<!-- svcs -->
<g id="node1" class="node"><title>svcs</title>
<polygon fill="lightgray" stroke="black" points="379.694,-581.313 274.694,-581.313 274.694,-528.313 379.694,-528.313 379.694,-581.313"/>
<text text-anchor="middle" x="327.194" y="-566.113" font-family="Times,serif" font-size="14.00">svcs.dmsat1.org</text>
<text text-anchor="middle" x="327.194" y="-551.113" font-family="Times,serif" font-size="14.00">svcs</text>
<text text-anchor="middle" x="327.194" y="-536.113" font-family="Times,serif" font-size="14.00">192.168.5.0/24</text>
</g>
<!-- ant1 -->
<g id="node2" class="node"><title>ant1</title>
<path fill="lightblue" stroke="black" d="M283.864,-684.269C283.864,-684.269 253.864,-684.269 253.864,-684.269 247.864,-684.269 241.864,-678.269 241.864,-672.269 241.864,-672.269 241.864,-660.269 241.864,-660.269 241.864,-654.269 247.864,-648.269 253.864,-648.269 253.864,-648.269 283.864,-648.269 283.864,-648.269 289.864,-648.269 295.864,-654.269 295.864,-660.269 295.864,-660.269 295.864,-672.269 295.864,-672.269 295.864,-678.269 289.864,-684.269 283.864,-684.269"/>
<text text-anchor="middle" x="268.864" y="-662.569" font-family="Times,serif" font-size="14.00">ant1</text>
</g>
<!-- ntp1 -->
<g id="node3" class="node"><title>ntp1</title>
<path fill="lightblue" stroke="black" d="M509.439,-660.995C509.439,-660.995 479.439,-660.995 479.439,-660.995 473.439,-660.995 467.439,-654.995 467.439,-648.995 467.439,-648.995 467.439,-636.995 467.439,-636.995 467.439,-630.995 473.439,-624.995 479.439,-624.995 479.439,-624.995 509.439,-624.995 509.439,-624.995 515.439,-624.995 521.439,-630.995 521.439,-636.995 521.439,-636.995 521.439,-648.995 521.439,-648.995 521.439,-654.995 515.439,-660.995 509.439,-660.995"/>
<text text-anchor="middle" x="494.439" y="-639.295" font-family="Times,serif" font-size="14.00">ntp1</text>
</g>
<!-- ntp2 -->
<g id="node4" class="node"><title>ntp2</title>
<path fill="lightblue" stroke="black" d="M552.947,-616.07C552.947,-616.07 522.947,-616.07 522.947,-616.07 516.947,-616.07 510.947,-610.07 510.947,-604.07 510.947,-604.07 510.947,-592.07 510.947,-592.07 510.947,-586.07 516.947,-580.07 522.947,-580.07 522.947,-580.07 552.947,-580.07 552.947,-580.07 558.947,-580.07 564.947,-586.07 564.947,-592.07 564.947,-592.07 564.947,-604.07 564.947,-604.07 564.947,-610.07 558.947,-616.07 552.947,-616.07"/>
<text text-anchor="middle" x="537.947" y="-594.37" font-family="Times,serif" font-size="14.00">ntp2</text>
</g>
<!-- dns1 -->
<g id="node5" class="node"><title>dns1</title>
<path fill="lightblue" stroke="black" d="M451.412,-510.923C451.412,-510.923 421.412,-510.923 421.412,-510.923 415.412,-510.923 409.412,-504.923 409.412,-498.923 409.412,-498.923 409.412,-486.923 409.412,-486.923 409.412,-480.923 415.412,-474.923 421.412,-474.923 421.412,-474.923 451.412,-474.923 451.412,-474.923 457.412,-474.923 463.412,-480.923 463.412,-486.923 463.412,-486.923 463.412,-498.923 463.412,-498.923 463.412,-504.923 457.412,-510.923 451.412,-510.923"/>
<text text-anchor="middle" x="436.412" y="-489.223" font-family="Times,serif" font-size="14.00">dns1</text>
</g>
<!-- dns2 -->
<g id="node6" class="node"><title>dns2</title>
<path fill="lightblue" stroke="black" d="M418.806,-464.722C418.806,-464.722 388.806,-464.722 388.806,-464.722 382.806,-464.722 376.806,-458.722 376.806,-452.722 376.806,-452.722 376.806,-440.722 376.806,-440.722 376.806,-434.722 382.806,-428.722 388.806,-428.722 388.806,-428.722 418.806,-428.722 418.806,-428.722 424.806,-428.722 430.806,-434.722 430.806,-440.722 430.806,-440.722 430.806,-452.722 430.806,-452.722 430.806,-458.722 424.806,-464.722 418.806,-464.722"/>
<text text-anchor="middle" x="403.806" y="-443.022" font-family="Times,serif" font-size="14.00">dns2</text>
</g>
<!-- dns3 -->
<g id="node7" class="node"><title>dns3</title>
<path fill="lightblue" stroke="black" d="M348.745,-483.032C348.745,-483.032 318.745,-483.032 318.745,-483.032 312.745,-483.032 306.745,-477.032 306.745,-471.032 306.745,-471.032 306.745,-459.032 306.745,-459.032 306.745,-453.032 312.745,-447.032 318.745,-447.032 318.745,-447.032 348.745,-447.032 348.745,-447.032 354.745,-447.032 360.745,-453.032 360.745,-459.032 360.745,-459.032 360.745,-471.032 360.745,-471.032 360.745,-477.032 354.745,-483.032 348.745,-483.032"/>
<text text-anchor="middle" x="333.745" y="-461.332" font-family="Times,serif" font-size="14.00">dns3</text>
</g>
<!-- ds1 -->
<g id="node8" class="node"><title>ds1</title>
<path fill="lightblue" stroke="black" d="M108.568,-540.318C108.568,-540.318 78.5683,-540.318 78.5683,-540.318 72.5683,-540.318 66.5683,-534.318 66.5683,-528.318 66.5683,-528.318 66.5683,-516.318 66.5683,-516.318 66.5683,-510.318 72.5683,-504.318 78.5683,-504.318 78.5683,-504.318 108.568,-504.318 108.568,-504.318 114.568,-504.318 120.568,-510.318 120.568,-516.318 120.568,-516.318 120.568,-528.318 120.568,-528.318 120.568,-534.318 114.568,-540.318 108.568,-540.318"/>
<text text-anchor="middle" x="93.5683" y="-518.618" font-family="Times,serif" font-size="14.00">ds1</text>
</g>
<!-- ds2 -->
<g id="node9" class="node"><title>ds2</title>
<path fill="lightblue" stroke="black" d="M58.9493,-588.403C58.9493,-588.403 28.9493,-588.403 28.9493,-588.403 22.9493,-588.403 16.9493,-582.403 16.9493,-576.403 16.9493,-576.403 16.9493,-564.403 16.9493,-564.403 16.9493,-558.403 22.9493,-552.403 28.9493,-552.403 28.9493,-552.403 58.9493,-552.403 58.9493,-552.403 64.9493,-552.403 70.9493,-558.403 70.9493,-564.403 70.9493,-564.403 70.9493,-576.403 70.9493,-576.403 70.9493,-582.403 64.9493,-588.403 58.9493,-588.403"/>
<text text-anchor="middle" x="43.9493" y="-566.703" font-family="Times,serif" font-size="14.00">ds2</text>
</g>
<!-- lvs1 -->
<g id="node10" class="node"><title>lvs1</title>
<path fill="lightblue" stroke="black" d="M192.302,-591.002C192.302,-591.002 162.302,-591.002 162.302,-591.002 156.302,-591.002 150.302,-585.002 150.302,-579.002 150.302,-579.002 150.302,-567.002 150.302,-567.002 150.302,-561.002 156.302,-555.002 162.302,-555.002 162.302,-555.002 192.302,-555.002 192.302,-555.002 198.302,-555.002 204.302,-561.002 204.302,-567.002 204.302,-567.002 204.302,-579.002 204.302,-579.002 204.302,-585.002 198.302,-591.002 192.302,-591.002"/>
<text text-anchor="middle" x="177.302" y="-569.302" font-family="Times,serif" font-size="14.00">lvs1</text>
</g>
<!-- lvs2 -->
<g id="node11" class="node"><title>lvs2</title>
<path fill="lightblue" stroke="black" d="M64.7633,-635.298C64.7633,-635.298 34.7633,-635.298 34.7633,-635.298 28.7633,-635.298 22.7633,-629.298 22.7633,-623.298 22.7633,-623.298 22.7633,-611.298 22.7633,-611.298 22.7633,-605.298 28.7633,-599.298 34.7633,-599.298 34.7633,-599.298 64.7633,-599.298 64.7633,-599.298 70.7633,-599.298 76.7633,-605.298 76.7633,-611.298 76.7633,-611.298 76.7633,-623.298 76.7633,-623.298 76.7633,-629.298 70.7633,-635.298 64.7633,-635.298"/>
<text text-anchor="middle" x="49.7633" y="-613.598" font-family="Times,serif" font-size="14.00">lvs2</text>
</g>
<!-- lts1 -->
<g id="node12" class="node"><title>lts1</title>
<path fill="lightblue" stroke="black" d="M360.913,-691.608C360.913,-691.608 330.913,-691.608 330.913,-691.608 324.913,-691.608 318.913,-685.608 318.913,-679.608 318.913,-679.608 318.913,-667.608 318.913,-667.608 318.913,-661.608 324.913,-655.608 330.913,-655.608 330.913,-655.608 360.913,-655.608 360.913,-655.608 366.913,-655.608 372.913,-661.608 372.913,-667.608 372.913,-667.608 372.913,-679.608 372.913,-679.608 372.913,-685.608 366.913,-691.608 360.913,-691.608"/>
<text text-anchor="middle" x="345.913" y="-669.908" font-family="Times,serif" font-size="14.00">lts1</text>
</g>
<!-- lts2 -->
<g id="node13" class="node"><title>lts2</title>
<path fill="lightblue" stroke="black" d="M423.391,-688.835C423.391,-688.835 393.391,-688.835 393.391,-688.835 387.391,-688.835 381.391,-682.835 381.391,-676.835 381.391,-676.835 381.391,-664.835 381.391,-664.835 381.391,-658.835 387.391,-652.835 393.391,-652.835 393.391,-652.835 423.391,-652.835 423.391,-652.835 429.391,-652.835 435.391,-658.835 435.391,-664.835 435.391,-664.835 435.391,-676.835 435.391,-676.835 435.391,-682.835 429.391,-688.835 423.391,-688.835"/>
<text text-anchor="middle" x="408.391" y="-667.135" font-family="Times,serif" font-size="14.00">lts2</text>
</g>
<!-- d21sw1 -->
<g id="node14" class="node"><title>d21sw1</title>
<path fill="lightblue" stroke="black" d="M276.016,-465.425C276.016,-465.425 241.016,-465.425 241.016,-465.425 235.016,-465.425 229.016,-459.425 229.016,-453.425 229.016,-453.425 229.016,-441.425 229.016,-441.425 229.016,-435.425 235.016,-429.425 241.016,-429.425 241.016,-429.425 276.016,-429.425 276.016,-429.425 282.016,-429.425 288.016,-435.425 288.016,-441.425 288.016,-441.425 288.016,-453.425 288.016,-453.425 288.016,-459.425 282.016,-465.425 276.016,-465.425"/>
<text text-anchor="middle" x="258.516" y="-443.725" font-family="Times,serif" font-size="14.00">d21sw1</text>
</g>
<!-- rmt -->
<g id="node15" class="node"><title>rmt</title>
<polygon fill="lightgray" stroke="black" points="698.899,-433.505 597.899,-433.505 597.899,-380.505 698.899,-380.505 698.899,-433.505"/>
<text text-anchor="middle" x="648.399" y="-418.305" font-family="Times,serif" font-size="14.00">rmt.dmsat1.org</text>
<text text-anchor="middle" x="648.399" y="-403.305" font-family="Times,serif" font-size="14.00">rmt</text>
<text text-anchor="middle" x="648.399" y="-388.305" font-family="Times,serif" font-size="14.00">192.168.7.0/24</text>
</g>
<!-- proxy1 -->
<g id="node16" class="node"><title>proxy1</title>
<path fill="lightblue" stroke="black" d="M754.904,-449.046C754.904,-449.046 723.904,-449.046 723.904,-449.046 717.904,-449.046 711.904,-443.046 711.904,-437.046 711.904,-437.046 711.904,-425.046 711.904,-425.046 711.904,-419.046 717.904,-413.046 723.904,-413.046 723.904,-413.046 754.904,-413.046 754.904,-413.046 760.904,-413.046 766.904,-419.046 766.904,-425.046 766.904,-425.046 766.904,-437.046 766.904,-437.046 766.904,-443.046 760.904,-449.046 754.904,-449.046"/>
<text text-anchor="middle" x="739.404" y="-427.346" font-family="Times,serif" font-size="14.00">proxy1</text>
</g>
<!-- tgt1 -->
<g id="node17" class="node"><title>tgt1</title>
<path fill="lightblue" stroke="black" d="M681.604,-483.271C681.604,-483.271 651.604,-483.271 651.604,-483.271 645.604,-483.271 639.604,-477.271 639.604,-471.271 639.604,-471.271 639.604,-459.271 639.604,-459.271 639.604,-453.271 645.604,-447.271 651.604,-447.271 651.604,-447.271 681.604,-447.271 681.604,-447.271 687.604,-447.271 693.604,-453.271 693.604,-459.271 693.604,-459.271 693.604,-471.271 693.604,-471.271 693.604,-477.271 687.604,-483.271 681.604,-483.271"/>
<text text-anchor="middle" x="666.604" y="-461.571" font-family="Times,serif" font-size="14.00">tgt1</text>
</g>
<!-- dmz -->
<g id="node18" class="node"><title>dmz</title>
<polygon fill="lightgray" stroke="black" points="670.241,-130.764 564.241,-130.764 564.241,-77.7638 670.241,-77.7638 670.241,-130.764"/>
<text text-anchor="middle" x="617.241" y="-115.564" font-family="Times,serif" font-size="14.00">dmz.dmsat1.org</text>
<text text-anchor="middle" x="617.241" y="-100.564" font-family="Times,serif" font-size="14.00">dmz</text>
<text text-anchor="middle" x="617.241" y="-85.5638" font-family="Times,serif" font-size="14.00">192.168.6.0/24</text>
</g>
<!-- ds3 -->
<g id="node19" class="node"><title>ds3</title>
<path fill="lightblue" stroke="black" d="M632.288,-66.6698C632.288,-66.6698 602.288,-66.6698 602.288,-66.6698 596.288,-66.6698 590.288,-60.6698 590.288,-54.6698 590.288,-54.6698 590.288,-42.6698 590.288,-42.6698 590.288,-36.6698 596.288,-30.6698 602.288,-30.6698 602.288,-30.6698 632.288,-30.6698 632.288,-30.6698 638.288,-30.6698 644.288,-36.6698 644.288,-42.6698 644.288,-42.6698 644.288,-54.6698 644.288,-54.6698 644.288,-60.6698 638.288,-66.6698 632.288,-66.6698"/>
<text text-anchor="middle" x="617.288" y="-44.9698" font-family="Times,serif" font-size="14.00">ds3</text>
</g>
<!-- dex1 -->
<g id="node20" class="node"><title>dex1</title>
<path fill="lightblue" stroke="black" d="M728.362,-69.7323C728.362,-69.7323 698.362,-69.7323 698.362,-69.7323 692.362,-69.7323 686.362,-63.7323 686.362,-57.7323 686.362,-57.7323 686.362,-45.7323 686.362,-45.7323 686.362,-39.7323 692.362,-33.7323 698.362,-33.7323 698.362,-33.7323 728.362,-33.7323 728.362,-33.7323 734.362,-33.7323 740.362,-39.7323 740.362,-45.7323 740.362,-45.7323 740.362,-57.7323 740.362,-57.7323 740.362,-63.7323 734.362,-69.7323 728.362,-69.7323"/>
<text text-anchor="middle" x="713.362" y="-48.0323" font-family="Times,serif" font-size="14.00">dex1</text>
</g>
<!-- core -->
<g id="node21" class="node"><title>core</title>
<polygon fill="lightgray" stroke="black" points="454.127,-303.033 349.127,-303.033 349.127,-250.033 454.127,-250.033 454.127,-303.033"/>
<text text-anchor="middle" x="401.627" y="-287.833" font-family="Times,serif" font-size="14.00">core.dmsat1.org</text>
<text text-anchor="middle" x="401.627" y="-272.833" font-family="Times,serif" font-size="14.00">core</text>
<text text-anchor="middle" x="401.627" y="-257.833" font-family="Times,serif" font-size="14.00">192.168.4.0/24</text>
</g>
<!-- dev1 -->
<g id="node22" class="node"><title>dev1</title>
<path fill="lightblue" stroke="black" d="M517.172,-290.602C517.172,-290.602 487.172,-290.602 487.172,-290.602 481.172,-290.602 475.172,-284.602 475.172,-278.602 475.172,-278.602 475.172,-266.602 475.172,-266.602 475.172,-260.602 481.172,-254.602 487.172,-254.602 487.172,-254.602 517.172,-254.602 517.172,-254.602 523.172,-254.602 529.172,-260.602 529.172,-266.602 529.172,-266.602 529.172,-278.602 529.172,-278.602 529.172,-284.602 523.172,-290.602 517.172,-290.602"/>
<text text-anchor="middle" x="502.172" y="-268.902" font-family="Times,serif" font-size="14.00">dev1</text>
</g>
<!-- rpm1 -->
<g id="node23" class="node"><title>rpm1</title>
<path fill="lightblue" stroke="black" d="M372.426,-230.628C372.426,-230.628 342.426,-230.628 342.426,-230.628 336.426,-230.628 330.426,-224.628 330.426,-218.628 330.426,-218.628 330.426,-206.628 330.426,-206.628 330.426,-200.628 336.426,-194.628 342.426,-194.628 342.426,-194.628 372.426,-194.628 372.426,-194.628 378.426,-194.628 384.426,-200.628 384.426,-206.628 384.426,-206.628 384.426,-218.628 384.426,-218.628 384.426,-224.628 378.426,-230.628 372.426,-230.628"/>
<text text-anchor="middle" x="357.426" y="-208.928" font-family="Times,serif" font-size="14.00">rpm1</text>
</g>
<!-- yum1 -->
<g id="node24" class="node"><title>yum1</title>
<path fill="lightblue" stroke="black" d="M452.732,-234.85C452.732,-234.85 422.732,-234.85 422.732,-234.85 416.732,-234.85 410.732,-228.85 410.732,-222.85 410.732,-222.85 410.732,-210.85 410.732,-210.85 410.732,-204.85 416.732,-198.85 422.732,-198.85 422.732,-198.85 452.732,-198.85 452.732,-198.85 458.732,-198.85 464.732,-204.85 464.732,-210.85 464.732,-210.85 464.732,-222.85 464.732,-222.85 464.732,-228.85 458.732,-234.85 452.732,-234.85"/>
<text text-anchor="middle" x="437.732" y="-213.15" font-family="Times,serif" font-size="14.00">yum1</text>
</g>
</g>
</svg>
