<?xml version="1.0" encoding="UTF-8" standalone="no"?>
<!DOCTYPE svg PUBLIC "-//W3C//DTD SVG 1.1//EN"
 "http://www.w3.org/Graphics/SVG/1.1/DTD/svg11.dtd">
<!-- Generated by graphviz version 2.34.0 (20140110.0949)
 -->
<!-- Title: cluster_dev_network Pages: 1 -->
<svg width="619pt" height="715pt"
 viewBox="0.00 0.00 619.00 715.00" xmlns="http://www.w3.org/2000/svg" xmlns:xlink="http://www.w3.org/1999/xlink">
<g id="graph0" class="graph" transform="scale(1 1) rotate(0) translate(4 711)">
<title>cluster_dev_network</title>
<polygon fill="white" stroke="white" points="-4,4 -4,-711 615,-711 615,4 -4,4"/>
<text text-anchor="middle" x="305.5" y="-691.8" font-family="Times,serif" font-size="14.00">Deployment zone (dmsat1)</text>
<g id="clust1" class="cluster"><title>cluster_svcs</title>
<polygon fill="white" stroke="black" points="0.272816,-298.777 0.272816,-683.777 384.273,-683.777 384.273,-298.777 0.272816,-298.777"/>
<text text-anchor="middle" x="192.273" y="-306.577" font-family="Times,serif" font-size="14.00">Services (svcs) zone</text>
</g>
<g id="clust2" class="cluster"><title>cluster_ntp1</title>
<polygon fill="white" stroke="black" points="214.181,-557.449 214.181,-675.449 354.181,-675.449 354.181,-557.449 214.181,-557.449"/>
<text text-anchor="middle" x="284.181" y="-565.249" font-family="Times,serif" font-size="14.00">ntp1 instance</text>
</g>
<g id="clust3" class="cluster"><title>cluster_ldap1</title>
<polygon fill="white" stroke="black" points="103.1,-329.658 103.1,-481.658 314.1,-481.658 314.1,-329.658 103.1,-329.658"/>
<text text-anchor="middle" x="208.6" y="-337.458" font-family="Times,serif" font-size="14.00">ldap1 instance</text>
</g>
<g id="clust4" class="cluster"><title>cluster_lts1</title>
<polygon fill="white" stroke="black" points="8.74471,-421.167 8.74471,-546.167 93.7447,-546.167 93.7447,-421.167 8.74471,-421.167"/>
<text text-anchor="middle" x="51.2447" y="-428.967" font-family="Times,serif" font-size="14.00">lts1 instance</text>
</g>
<g id="clust5" class="cluster"><title>cluster_rmt</title>
<polygon fill="white" stroke="black" points="426.383,-314.221 426.383,-455.221 611.383,-455.221 611.383,-314.221 426.383,-314.221"/>
<text text-anchor="middle" x="518.883" y="-322.021" font-family="Times,serif" font-size="14.00">Remote (rmt) zone</text>
</g>
<g id="clust6" class="cluster"><title>cluster_dmz</title>
<polygon fill="white" stroke="black" points="406.221,0.430383 406.221,-138.57 598.221,-138.57 598.221,0.430383 406.221,0.430383"/>
<text text-anchor="middle" x="502.221" y="-7.36962" font-family="Times,serif" font-size="14.00">Demilitarized (dmz) zone</text>
</g>
<g id="clust7" class="cluster"><title>cluster_core</title>
<polygon fill="white" stroke="black" points="145.613,-91.7365 145.613,-289.737 395.613,-289.737 395.613,-91.7365 145.613,-91.7365"/>
<text text-anchor="middle" x="270.613" y="-99.5365" font-family="Times,serif" font-size="14.00">Central network (core) zone</text>
</g>
<!-- svcs&#45;&#45;ant1 -->
<g id="edge1" class="edge"><title>svcs&#45;&#45;ant1</title>
<path fill="none" stroke="black" d="M275.175,-513.598C291.42,-510.843 308.63,-507.925 322.397,-505.59"/>
</g>
<!-- svcs&#45;&#45;ntp1 -->
<g id="edge2" class="edge"><title>svcs&#45;&#45;ntp1</title>
<path fill="none" stroke="black" d="M227.879,-549.165C232.995,-573.735 240.461,-609.583 244.945,-631.112"/>
</g>
<!-- svcs&#45;&#45;ntp2 -->
<g id="edge3" class="edge"><title>svcs&#45;&#45;ntp2</title>
<path fill="none" stroke="black" d="M244.019,-549.095C262.378,-571.566 288.198,-603.169 304.235,-622.797"/>
</g>
<!-- svcs&#45;&#45;ds1 -->
<g id="edge4" class="edge"><title>svcs&#45;&#45;ds1</title>
<path fill="none" stroke="black" d="M237.983,-495.934C247.784,-479.256 260.161,-458.195 268.859,-443.394"/>
</g>
<!-- svcs&#45;&#45;ds2 -->
<g id="edge5" class="edge"><title>svcs&#45;&#45;ds2</title>
<path fill="none" stroke="black" d="M226.267,-495.842C230.496,-467.084 237.111,-422.108 240.79,-397.088"/>
</g>
<!-- svcs&#45;&#45;lvs1 -->
<g id="edge6" class="edge"><title>svcs&#45;&#45;lvs1</title>
<path fill="none" stroke="black" d="M214.193,-496.046C205.425,-467.508 191.714,-422.876 184.086,-398.047"/>
</g>
<!-- svcs&#45;&#45;lvs2 -->
<g id="edge7" class="edge"><title>svcs&#45;&#45;lvs2</title>
<path fill="none" stroke="black" d="M197.567,-495.677C183.811,-480.749 167.069,-462.58 154.887,-449.359"/>
</g>
<!-- svcs&#45;&#45;lts1 -->
<g id="edge8" class="edge"><title>svcs&#45;&#45;lts1</title>
<path fill="none" stroke="black" d="M169.647,-505.589C141.798,-496.62 108.768,-485.982 86.022,-478.657"/>
</g>
<!-- svcs&#45;&#45;lts2 -->
<g id="edge9" class="edge"><title>svcs&#45;&#45;lts2</title>
<path fill="none" stroke="black" d="M169.805,-521.88C137.55,-521.464 97.5537,-520.948 71.4431,-520.611"/>
</g>
<!-- svcs&#45;&#45;sw1 -->
<g id="edge10" class="edge"><title>svcs&#45;&#45;sw1</title>
<path fill="none" stroke="black" d="M200.262,-549.252C186.57,-565.808 169.346,-586.636 157.249,-601.263"/>
</g>
<!-- rmt&#45;&#45;proxy1 -->
<g id="edge11" class="edge"><title>rmt&#45;&#45;proxy1</title>
<path fill="none" stroke="black" d="M493.366,-397.957C494.782,-402.491 496.223,-407.103 497.548,-411.346"/>
</g>
<!-- rmt&#45;&#45;tgt1 -->
<g id="edge12" class="edge"><title>rmt&#45;&#45;tgt1</title>
<path fill="none" stroke="black" d="M535.552,-384.592C540.13,-385.797 544.639,-386.985 548.89,-388.104"/>
</g>
<!-- dmz&#45;&#45;ds3 -->
<g id="edge13" class="edge"><title>dmz&#45;&#45;ds3</title>
<path fill="none" stroke="black" d="M516.152,-77.1336C523.136,-73.3159 530.105,-69.5069 536.467,-66.0292"/>
</g>
<!-- dmz&#45;&#45;dex1 -->
<g id="edge14" class="edge"><title>dmz&#45;&#45;dex1</title>
<path fill="none" stroke="black" d="M467.55,-76.8903C467.553,-73.3362 467.556,-69.7607 467.559,-66.3968"/>
</g>
<!-- core&#45;&#45;svcs -->
<g id="edge18" class="edge"><title>core&#45;&#45;svcs</title>
<path fill="none" stroke="black" d="M256.612,-229.769C249.572,-289.906 232.535,-435.443 225.479,-495.72"/>
</g>
<!-- core&#45;&#45;rmt -->
<g id="edge19" class="edge"><title>core&#45;&#45;rmt</title>
<path fill="none" stroke="black" d="M295.436,-229.734C337.623,-261.231 407.39,-313.32 449.504,-344.763"/>
</g>
<!-- core&#45;&#45;dmz -->
<g id="edge20" class="edge"><title>core&#45;&#45;dmz</title>
<path fill="none" stroke="black" d="M312.44,-177.876C343.701,-162.927 383.206,-144.035 414.521,-129.06"/>
</g>
<!-- core&#45;&#45;dev1 -->
<g id="edge15" class="edge"><title>core&#45;&#45;dev1</title>
<path fill="none" stroke="black" d="M269.135,-176.384C270.551,-172.362 271.983,-168.295 273.316,-164.509"/>
</g>
<!-- core&#45;&#45;rpm1 -->
<g id="edge16" class="edge"><title>core&#45;&#45;rpm1</title>
<path fill="none" stroke="black" d="M312.32,-198.112C319.703,-197.415 327.027,-196.723 333.66,-196.096"/>
</g>
<!-- core&#45;&#45;yum1 -->
<g id="edge17" class="edge"><title>core&#45;&#45;yum1</title>
<path fill="none" stroke="black" d="M226.367,-176.537C218.828,-170.54 210.989,-164.304 203.993,-158.739"/>
</g>
<!-- svcs -->
<g id="node1" class="node"><title>svcs</title>
<polygon fill="lightgray" stroke="black" points="274.837,-549.058 169.837,-549.058 169.837,-496.058 274.837,-496.058 274.837,-549.058"/>
<text text-anchor="middle" x="222.337" y="-533.858" font-family="Times,serif" font-size="14.00">svcs.dmsat1.org</text>
<text text-anchor="middle" x="222.337" y="-518.858" font-family="Times,serif" font-size="14.00">svcs</text>
<text text-anchor="middle" x="222.337" y="-503.858" font-family="Times,serif" font-size="14.00">192.168.5.0/24</text>
</g>
<!-- ant1 -->
<g id="node2" class="node"><title>ant1</title>
<path fill="lightblue" stroke="black" d="M364.534,-518.989C364.534,-518.989 334.534,-518.989 334.534,-518.989 328.534,-518.989 322.534,-512.989 322.534,-506.989 322.534,-506.989 322.534,-494.989 322.534,-494.989 322.534,-488.989 328.534,-482.989 334.534,-482.989 334.534,-482.989 364.534,-482.989 364.534,-482.989 370.534,-482.989 376.534,-488.989 376.534,-494.989 376.534,-494.989 376.534,-506.989 376.534,-506.989 376.534,-512.989 370.534,-518.989 364.534,-518.989"/>
<text text-anchor="middle" x="349.534" y="-497.289" font-family="Times,serif" font-size="14.00">ant1</text>
</g>
<!-- ntp1 -->
<g id="node3" class="node"><title>ntp1</title>
<path fill="lightblue" stroke="black" d="M263.77,-667.481C263.77,-667.481 233.77,-667.481 233.77,-667.481 227.77,-667.481 221.77,-661.481 221.77,-655.481 221.77,-655.481 221.77,-643.481 221.77,-643.481 221.77,-637.481 227.77,-631.481 233.77,-631.481 233.77,-631.481 263.77,-631.481 263.77,-631.481 269.77,-631.481 275.77,-637.481 275.77,-643.481 275.77,-643.481 275.77,-655.481 275.77,-655.481 275.77,-661.481 269.77,-667.481 263.77,-667.481"/>
<text text-anchor="middle" x="248.77" y="-645.781" font-family="Times,serif" font-size="14.00">ntp1</text>
</g>
<!-- ntp2 -->
<g id="node4" class="node"><title>ntp2</title>
<path fill="lightblue" stroke="black" d="M333.949,-658.806C333.949,-658.806 303.949,-658.806 303.949,-658.806 297.949,-658.806 291.949,-652.806 291.949,-646.806 291.949,-646.806 291.949,-634.806 291.949,-634.806 291.949,-628.806 297.949,-622.806 303.949,-622.806 303.949,-622.806 333.949,-622.806 333.949,-622.806 339.949,-622.806 345.949,-628.806 345.949,-634.806 345.949,-634.806 345.949,-646.806 345.949,-646.806 345.949,-652.806 339.949,-658.806 333.949,-658.806"/>
<text text-anchor="middle" x="318.949" y="-637.106" font-family="Times,serif" font-size="14.00">ntp2</text>
</g>
<!-- ds1 -->
<g id="node5" class="node"><title>ds1</title>
<path fill="lightblue" stroke="black" d="M294.595,-443.125C294.595,-443.125 264.595,-443.125 264.595,-443.125 258.595,-443.125 252.595,-437.125 252.595,-431.125 252.595,-431.125 252.595,-419.125 252.595,-419.125 252.595,-413.125 258.595,-407.125 264.595,-407.125 264.595,-407.125 294.595,-407.125 294.595,-407.125 300.595,-407.125 306.595,-413.125 306.595,-419.125 306.595,-419.125 306.595,-431.125 306.595,-431.125 306.595,-437.125 300.595,-443.125 294.595,-443.125"/>
<text text-anchor="middle" x="279.595" y="-421.425" font-family="Times,serif" font-size="14.00">ds1</text>
</g>
<!-- ds2 -->
<g id="node6" class="node"><title>ds2</title>
<path fill="lightblue" stroke="black" d="M258.49,-396.729C258.49,-396.729 228.49,-396.729 228.49,-396.729 222.49,-396.729 216.49,-390.729 216.49,-384.729 216.49,-384.729 216.49,-372.729 216.49,-372.729 216.49,-366.729 222.49,-360.729 228.49,-360.729 228.49,-360.729 258.49,-360.729 258.49,-360.729 264.49,-360.729 270.49,-366.729 270.49,-372.729 270.49,-372.729 270.49,-384.729 270.49,-384.729 270.49,-390.729 264.49,-396.729 258.49,-396.729"/>
<text text-anchor="middle" x="243.49" y="-375.029" font-family="Times,serif" font-size="14.00">ds2</text>
</g>
<!-- lvs1 -->
<g id="node7" class="node"><title>lvs1</title>
<path fill="lightblue" stroke="black" d="M193.489,-397.829C193.489,-397.829 163.489,-397.829 163.489,-397.829 157.489,-397.829 151.489,-391.829 151.489,-385.829 151.489,-385.829 151.489,-373.829 151.489,-373.829 151.489,-367.829 157.489,-361.829 163.489,-361.829 163.489,-361.829 193.489,-361.829 193.489,-361.829 199.489,-361.829 205.489,-367.829 205.489,-373.829 205.489,-373.829 205.489,-385.829 205.489,-385.829 205.489,-391.829 199.489,-397.829 193.489,-397.829"/>
<text text-anchor="middle" x="178.489" y="-376.129" font-family="Times,serif" font-size="14.00">lvs1</text>
</g>
<!-- lvs2 -->
<g id="node8" class="node"><title>lvs2</title>
<path fill="lightblue" stroke="black" d="M153.264,-449.32C153.264,-449.32 123.264,-449.32 123.264,-449.32 117.264,-449.32 111.264,-443.32 111.264,-437.32 111.264,-437.32 111.264,-425.32 111.264,-425.32 111.264,-419.32 117.264,-413.32 123.264,-413.32 123.264,-413.32 153.264,-413.32 153.264,-413.32 159.264,-413.32 165.264,-419.32 165.264,-425.32 165.264,-425.32 165.264,-437.32 165.264,-437.32 165.264,-443.32 159.264,-449.32 153.264,-449.32"/>
<text text-anchor="middle" x="138.264" y="-427.62" font-family="Times,serif" font-size="14.00">lvs2</text>
</g>
<!-- lts1 -->
<g id="node9" class="node"><title>lts1</title>
<path fill="lightblue" stroke="black" d="M73.6574,-487.844C73.6574,-487.844 43.6574,-487.844 43.6574,-487.844 37.6574,-487.844 31.6574,-481.844 31.6574,-475.844 31.6574,-475.844 31.6574,-463.844 31.6574,-463.844 31.6574,-457.844 37.6574,-451.844 43.6574,-451.844 43.6574,-451.844 73.6574,-451.844 73.6574,-451.844 79.6574,-451.844 85.6574,-457.844 85.6574,-463.844 85.6574,-463.844 85.6574,-475.844 85.6574,-475.844 85.6574,-481.844 79.6574,-487.844 73.6574,-487.844"/>
<text text-anchor="middle" x="58.6574" y="-466.144" font-family="Times,serif" font-size="14.00">lts1</text>
</g>
<!-- lts2 -->
<g id="node10" class="node"><title>lts2</title>
<path fill="lightblue" stroke="black" d="M59.0349,-538.258C59.0349,-538.258 29.0349,-538.258 29.0349,-538.258 23.0349,-538.258 17.0349,-532.258 17.0349,-526.258 17.0349,-526.258 17.0349,-514.258 17.0349,-514.258 17.0349,-508.258 23.0349,-502.258 29.0349,-502.258 29.0349,-502.258 59.0349,-502.258 59.0349,-502.258 65.0349,-502.258 71.0349,-508.258 71.0349,-514.258 71.0349,-514.258 71.0349,-526.258 71.0349,-526.258 71.0349,-532.258 65.0349,-538.258 59.0349,-538.258"/>
<text text-anchor="middle" x="44.0349" y="-516.558" font-family="Times,serif" font-size="14.00">lts2</text>
</g>
<!-- sw1 -->
<g id="node11" class="node"><title>sw1</title>
<path fill="lightblue" stroke="black" d="M157.326,-637.309C157.326,-637.309 127.326,-637.309 127.326,-637.309 121.326,-637.309 115.326,-631.309 115.326,-625.309 115.326,-625.309 115.326,-613.309 115.326,-613.309 115.326,-607.309 121.326,-601.309 127.326,-601.309 127.326,-601.309 157.326,-601.309 157.326,-601.309 163.326,-601.309 169.326,-607.309 169.326,-613.309 169.326,-613.309 169.326,-625.309 169.326,-625.309 169.326,-631.309 163.326,-637.309 157.326,-637.309"/>
<text text-anchor="middle" x="142.326" y="-615.609" font-family="Times,serif" font-size="14.00">sw1</text>
</g>
<!-- rmt -->
<g id="node12" class="node"><title>rmt</title>
<polygon fill="lightgray" stroke="black" points="535.536,-397.791 434.536,-397.791 434.536,-344.791 535.536,-344.791 535.536,-397.791"/>
<text text-anchor="middle" x="485.036" y="-382.591" font-family="Times,serif" font-size="14.00">rmt.dmsat1.org</text>
<text text-anchor="middle" x="485.036" y="-367.591" font-family="Times,serif" font-size="14.00">rmt</text>
<text text-anchor="middle" x="485.036" y="-352.591" font-family="Times,serif" font-size="14.00">192.168.7.0/24</text>
</g>
<!-- proxy1 -->
<g id="node13" class="node"><title>proxy1</title>
<path fill="lightblue" stroke="black" d="M518.683,-447.384C518.683,-447.384 487.683,-447.384 487.683,-447.384 481.683,-447.384 475.683,-441.384 475.683,-435.384 475.683,-435.384 475.683,-423.384 475.683,-423.384 475.683,-417.384 481.683,-411.384 487.683,-411.384 487.683,-411.384 518.683,-411.384 518.683,-411.384 524.683,-411.384 530.683,-417.384 530.683,-423.384 530.683,-423.384 530.683,-435.384 530.683,-435.384 530.683,-441.384 524.683,-447.384 518.683,-447.384"/>
<text text-anchor="middle" x="503.183" y="-425.684" font-family="Times,serif" font-size="14.00">proxy1</text>
</g>
<!-- tgt1 -->
<g id="node14" class="node"><title>tgt1</title>
<path fill="lightblue" stroke="black" d="M590.963,-413.232C590.963,-413.232 560.963,-413.232 560.963,-413.232 554.963,-413.232 548.963,-407.232 548.963,-401.232 548.963,-401.232 548.963,-389.232 548.963,-389.232 548.963,-383.232 554.963,-377.232 560.963,-377.232 560.963,-377.232 590.963,-377.232 590.963,-377.232 596.963,-377.232 602.963,-383.232 602.963,-389.232 602.963,-389.232 602.963,-401.232 602.963,-401.232 602.963,-407.232 596.963,-413.232 590.963,-413.232"/>
<text text-anchor="middle" x="575.963" y="-391.532" font-family="Times,serif" font-size="14.00">tgt1</text>
</g>
<!-- dmz -->
<g id="node15" class="node"><title>dmz</title>
<polygon fill="lightgray" stroke="black" points="520.529,-130.21 414.529,-130.21 414.529,-77.2102 520.529,-77.2102 520.529,-130.21"/>
<text text-anchor="middle" x="467.529" y="-115.01" font-family="Times,serif" font-size="14.00">dmz.dmsat1.org</text>
<text text-anchor="middle" x="467.529" y="-100.01" font-family="Times,serif" font-size="14.00">dmz</text>
<text text-anchor="middle" x="467.529" y="-85.0102" font-family="Times,serif" font-size="14.00">192.168.6.0/24</text>
</g>
<!-- ds3 -->
<g id="node16" class="node"><title>ds3</title>
<path fill="lightblue" stroke="black" d="M578.648,-69.1726C578.648,-69.1726 548.648,-69.1726 548.648,-69.1726 542.648,-69.1726 536.648,-63.1726 536.648,-57.1726 536.648,-57.1726 536.648,-45.1726 536.648,-45.1726 536.648,-39.1726 542.648,-33.1726 548.648,-33.1726 548.648,-33.1726 578.648,-33.1726 578.648,-33.1726 584.648,-33.1726 590.648,-39.1726 590.648,-45.1726 590.648,-45.1726 590.648,-57.1726 590.648,-57.1726 590.648,-63.1726 584.648,-69.1726 578.648,-69.1726"/>
<text text-anchor="middle" x="563.648" y="-47.4726" font-family="Times,serif" font-size="14.00">ds3</text>
</g>
<!-- dex1 -->
<g id="node17" class="node"><title>dex1</title>
<path fill="lightblue" stroke="black" d="M482.573,-66.1162C482.573,-66.1162 452.573,-66.1162 452.573,-66.1162 446.573,-66.1162 440.573,-60.1162 440.573,-54.1162 440.573,-54.1162 440.573,-42.1162 440.573,-42.1162 440.573,-36.1162 446.573,-30.1162 452.573,-30.1162 452.573,-30.1162 482.573,-30.1162 482.573,-30.1162 488.573,-30.1162 494.573,-36.1162 494.573,-42.1162 494.573,-42.1162 494.573,-54.1162 494.573,-54.1162 494.573,-60.1162 488.573,-66.1162 482.573,-66.1162"/>
<text text-anchor="middle" x="467.573" y="-44.4162" font-family="Times,serif" font-size="14.00">dex1</text>
</g>
<!-- core -->
<g id="node18" class="node"><title>core</title>
<polygon fill="lightgray" stroke="black" points="312.236,-229.58 207.236,-229.58 207.236,-176.58 312.236,-176.58 312.236,-229.58"/>
<text text-anchor="middle" x="259.736" y="-214.38" font-family="Times,serif" font-size="14.00">core.dmsat1.org</text>
<text text-anchor="middle" x="259.736" y="-199.38" font-family="Times,serif" font-size="14.00">core</text>
<text text-anchor="middle" x="259.736" y="-184.38" font-family="Times,serif" font-size="14.00">192.168.4.0/24</text>
</g>
<!-- dev1 -->
<g id="node19" class="node"><title>dev1</title>
<path fill="lightblue" stroke="black" d="M294.703,-164.367C294.703,-164.367 264.703,-164.367 264.703,-164.367 258.703,-164.367 252.703,-158.367 252.703,-152.367 252.703,-152.367 252.703,-140.367 252.703,-140.367 252.703,-134.367 258.703,-128.367 264.703,-128.367 264.703,-128.367 294.703,-128.367 294.703,-128.367 300.703,-128.367 306.703,-134.367 306.703,-140.367 306.703,-140.367 306.703,-152.367 306.703,-152.367 306.703,-158.367 300.703,-164.367 294.703,-164.367"/>
<text text-anchor="middle" x="279.703" y="-142.667" font-family="Times,serif" font-size="14.00">dev1</text>
</g>
<!-- rpm1 -->
<g id="node20" class="node"><title>rpm1</title>
<path fill="lightblue" stroke="black" d="M375.76,-211.536C375.76,-211.536 345.76,-211.536 345.76,-211.536 339.76,-211.536 333.76,-205.536 333.76,-199.536 333.76,-199.536 333.76,-187.536 333.76,-187.536 333.76,-181.536 339.76,-175.536 345.76,-175.536 345.76,-175.536 375.76,-175.536 375.76,-175.536 381.76,-175.536 387.76,-181.536 387.76,-187.536 387.76,-187.536 387.76,-199.536 387.76,-199.536 387.76,-205.536 381.76,-211.536 375.76,-211.536"/>
<text text-anchor="middle" x="360.76" y="-189.836" font-family="Times,serif" font-size="14.00">rpm1</text>
</g>
<!-- yum1 -->
<g id="node21" class="node"><title>yum1</title>
<path fill="lightblue" stroke="black" d="M196.052,-158.492C196.052,-158.492 166.052,-158.492 166.052,-158.492 160.052,-158.492 154.052,-152.492 154.052,-146.492 154.052,-146.492 154.052,-134.492 154.052,-134.492 154.052,-128.492 160.052,-122.492 166.052,-122.492 166.052,-122.492 196.052,-122.492 196.052,-122.492 202.052,-122.492 208.052,-128.492 208.052,-134.492 208.052,-134.492 208.052,-146.492 208.052,-146.492 208.052,-152.492 202.052,-158.492 196.052,-158.492"/>
<text text-anchor="middle" x="181.052" y="-136.792" font-family="Times,serif" font-size="14.00">yum1</text>
</g>
</g>
</svg>
